<svg width="94" height="40" viewBox="0 0 94 40" fill="none" xmlns="http://www.w3.org/2000/svg">
<g clip-path="url(#clip0_32_2)">
<rect width="94" height="40" rx="20" fill="#CCC2DC"/>
<path d="M51.621 25.231C50.1697 25.231 48.982 24.7597 48.058 23.817C47.1387 22.8697 46.679 21.647 46.679 20.149V19.799C46.679 18.3197 47.1527 17.1087 48.1 16.166C49.052 15.2187 50.2373 14.745 51.656 14.745C52.1413 14.745 52.5963 14.808 53.021 14.934C53.4503 15.06 53.8423 15.242 54.197 15.48C54.5517 15.718 54.8223 15.9537 55.009 16.187C55.2003 16.4157 55.296 16.53 55.296 16.53L54.183 17.531C54.183 17.531 54.106 17.4423 53.952 17.265C53.798 17.083 53.6043 16.915 53.371 16.761C53.1423 16.6023 52.888 16.4787 52.608 16.39C52.328 16.3013 52.0083 16.257 51.649 16.257C50.711 16.257 49.92 16.579 49.276 17.223C48.632 17.8623 48.31 18.7117 48.31 19.771V20.177C48.31 21.2363 48.6273 22.0903 49.262 22.739C49.9013 23.3877 50.69 23.712 51.628 23.712C51.9873 23.712 52.321 23.6607 52.629 23.558C52.9417 23.4553 53.2333 23.3107 53.504 23.124C53.7747 22.9373 53.987 22.753 54.141 22.571C54.295 22.3843 54.372 22.291 54.372 22.291L55.513 23.285C55.513 23.285 55.408 23.4157 55.198 23.677C54.9927 23.9383 54.6987 24.195 54.316 24.447C53.938 24.6943 53.5227 24.8857 53.07 25.021C52.622 25.161 52.139 25.231 51.621 25.231ZM56.9985 25V14.822H58.5665V18.693H58.6085C58.8231 18.3337 59.1311 18.0397 59.5325 17.811C59.9385 17.5823 60.4051 17.468 60.9325 17.468C61.7351 17.468 62.3581 17.699 62.8015 18.161C63.2448 18.623 63.4665 19.2577 63.4665 20.065V25H61.8915V20.401C61.8915 19.8737 61.7608 19.477 61.4995 19.211C61.2428 18.9403 60.8695 18.805 60.3795 18.805C59.8661 18.805 59.4368 18.994 59.0915 19.372C58.7461 19.7453 58.5735 20.191 58.5735 20.709V25H56.9985ZM67.539 25.224C66.769 25.224 66.1413 25.0093 65.656 24.58C65.1753 24.146 64.935 23.5603 64.935 22.823V22.732C64.935 21.9853 65.2056 21.395 65.747 20.961C66.293 20.527 67 20.31 67.868 20.31C68.2646 20.31 68.6356 20.3543 68.981 20.443C69.3263 20.5317 69.6203 20.6483 69.863 20.793V20.268C69.863 19.7873 69.702 19.414 69.38 19.148C69.0626 18.882 68.6473 18.749 68.134 18.749C67.8493 18.749 67.6043 18.7817 67.399 18.847C67.1983 18.9123 67.0186 18.9963 66.86 19.099C66.706 19.197 66.552 19.316 66.398 19.456C66.244 19.5913 66.167 19.659 66.167 19.659L65.236 18.791C65.236 18.791 65.3363 18.6953 65.537 18.504C65.7376 18.308 65.9686 18.1307 66.23 17.972C66.4913 17.8133 66.783 17.6897 67.105 17.601C67.427 17.5077 67.812 17.461 68.26 17.461C69.2213 17.461 69.9843 17.7107 70.549 18.21C71.1136 18.7047 71.396 19.393 71.396 20.275V25H69.898V23.537L70.248 24.062H69.856C69.646 24.3933 69.338 24.671 68.932 24.895C68.526 25.1143 68.0616 25.224 67.539 25.224ZM67.917 24.034C68.4676 24.034 68.9296 23.8403 69.303 23.453C69.681 23.061 69.8723 22.585 69.877 22.025V21.864C69.667 21.7007 69.4126 21.5747 69.114 21.486C68.8153 21.3927 68.5026 21.346 68.176 21.346C67.658 21.346 67.2473 21.4603 66.944 21.689C66.6406 21.913 66.489 22.2373 66.489 22.662V22.767C66.489 23.159 66.6173 23.4693 66.874 23.698C67.1353 23.922 67.483 24.034 67.917 24.034ZM75.8335 25.224C75.1895 25.224 74.6785 25.0397 74.3005 24.671C73.9225 24.3023 73.7335 23.775 73.7335 23.089V15.746H75.3015V22.872C75.3015 23.208 75.3739 23.46 75.5185 23.628C75.6632 23.796 75.8825 23.8823 76.1765 23.887C76.2699 23.887 76.3679 23.8753 76.4705 23.852C76.5779 23.8287 76.7015 23.789 76.8415 23.733C76.9862 23.677 77.0585 23.649 77.0585 23.649L77.2265 24.902C77.2265 24.902 77.1449 24.9347 76.9815 25C76.8229 25.07 76.6502 25.1237 76.4635 25.161C76.2769 25.203 76.0669 25.224 75.8335 25.224ZM72.5435 19.008V17.692H77.0865V19.008H72.5435Z" fill="#332D41"/>
<path d="M19.3639 12.8755C20.788 12.2092 22.3107 11.7249 23.9027 11.4492C24.0982 11.8027 24.3266 12.2781 24.4841 12.6563C26.1764 12.4018 27.8531 12.4018 29.5143 12.6563C29.6717 12.2781 29.9053 11.8027 30.1026 11.4492C31.6963 11.7249 33.2207 12.211 34.6448 12.879C37.5172 17.2196 38.2959 21.4524 37.9066 25.6251C36.0014 27.0478 34.1551 27.9121 32.34 28.4776C31.8918 27.8608 31.4921 27.2051 31.1478 26.5141C31.8036 26.2649 32.4317 25.9574 33.0252 25.6004C32.8677 25.4837 32.7137 25.3618 32.5649 25.2363C28.945 26.9294 25.0118 26.9294 21.4352 25.2363C21.2846 25.3618 21.1306 25.4837 20.9749 25.6004C21.5701 25.9591 22.2 26.2666 22.8558 26.5159C22.5115 27.2051 22.1135 27.8626 21.6636 28.4794C19.8467 27.9138 17.9986 27.0496 16.0935 25.6251C15.6367 20.7879 16.8739 16.594 19.3639 12.8755ZM30.6546 23.0589C31.7413 23.0589 32.6324 22.0445 32.6324 20.8091C32.6324 19.5737 31.7603 18.5575 30.6546 18.5575C29.5489 18.5575 28.6577 19.5719 28.6768 20.8091C28.675 22.0445 29.5489 23.0589 30.6546 23.0589ZM23.3455 23.0589C24.4322 23.0589 25.3233 22.0445 25.3233 20.8091C25.3233 19.5737 24.4512 18.5575 23.3455 18.5575C22.2398 18.5575 21.3486 19.5719 21.3677 20.8091C21.3677 22.0445 22.2398 23.0589 23.3455 23.0589Z" fill="#332D41"/>
</g>
<defs>
<clipPath id="clip0_32_2">
<rect width="94" height="40" rx="20" fill="white"/>
</clipPath>
</defs>
</svg>
